<?xml version="1.0" encoding="UTF-8"?>
<svg xmlns="http://www.w3.org/2000/svg" xmlns:xlink="http://www.w3.org/1999/xlink" width="32px" height="33px" viewBox="0 0 32 32" version="1.1">
<g id="surface1">
<path style=" stroke:none;fill-rule:nonzero;fill:rgb(0%,0%,0%);fill-opacity:1;" d="M 3.972656 0.738281 C 2.21875 1.476562 1.367188 3.339844 1.910156 5.328125 C 2.296875 6.703125 3.042969 7.585938 4.414062 8.25 C 5.523438 8.789062 6.996094 10.308594 7.457031 11.363281 C 7.84375 12.296875 8.363281 12.222656 8 11.289062 C 7.613281 10.355469 7.691406 9.253906 8.257812 7.757812 C 8.515625 7.019531 8.695312 6.382812 8.644531 6.332031 C 8.59375 6.285156 8.207031 6.605469 7.792969 7.070312 C 7.097656 7.78125 6.863281 7.878906 5.675781 7.878906 C 4.464844 7.878906 4.257812 7.78125 3.484375 6.972656 C 0.878906 4.273438 2.632812 0.273438 6.066406 1.15625 C 6.582031 1.304688 7.277344 1.773438 7.742188 2.3125 C 8.285156 2.949219 8.515625 3.097656 8.515625 2.777344 C 8.515625 2.1875 7.433594 1.183594 6.324219 0.738281 C 5.238281 0.324219 5.003906 0.324219 3.972656 0.738281 Z M 7.378906 9.105469 L 7.199219 9.992188 L 6.734375 9.425781 C 6.066406 8.640625 6.066406 8.394531 6.761719 8.222656 C 7.535156 8.027344 7.585938 8.078125 7.378906 9.105469 Z M 7.378906 9.105469 "/>
<path style=" stroke:none;fill-rule:nonzero;fill:rgb(0%,0%,0%);fill-opacity:1;" d="M 10.167969 1.867188 C 8.488281 2.507812 7.972656 4.886719 9.1875 6.261719 C 10.890625 8.199219 14.195312 7.019531 14.195312 4.46875 C 14.195312 2.433594 12.15625 1.109375 10.167969 1.867188 Z M 13.160156 5.671875 C 12.488281 6.457031 11.921875 6.578125 11.042969 6.113281 L 10.195312 5.671875 L 11.535156 5.546875 C 12.257812 5.476562 12.957031 5.328125 13.058594 5.230469 C 13.417969 4.910156 13.496094 5.277344 13.160156 5.671875 Z M 13.160156 5.671875 "/>
<path style=" stroke:none;fill-rule:nonzero;fill:rgb(0%,0%,0%);fill-opacity:1;" d="M 8.4375 8.542969 C 8.230469 9.253906 8.207031 10.652344 8.414062 11.363281 C 8.515625 11.707031 8.800781 11.925781 9.238281 11.976562 C 10.195312 12.074219 10.710938 13.078125 10.195312 13.769531 C 9.960938 14.039062 9.675781 14.503906 9.546875 14.796875 C 9.289062 15.363281 8.257812 15.605469 8.257812 15.09375 C 8.257812 14.96875 8.15625 14.921875 8 14.992188 C 7.871094 15.066406 7.742188 15.730469 7.742188 16.417969 C 7.742188 17.128906 7.511719 20.539062 7.199219 24.023438 C 6.65625 30.082031 6.65625 30.351562 7.097656 30.816406 C 7.742188 31.480469 8.929688 31.457031 9.394531 30.742188 C 9.652344 30.375 9.910156 28.609375 10.195312 25.175781 C 10.710938 18.699219 10.734375 18.550781 11.355469 18.550781 C 11.636719 18.550781 11.871094 18.652344 11.871094 18.773438 C 11.871094 18.871094 12.105469 21.542969 12.386719 24.683594 C 12.957031 30.867188 13.085938 31.308594 14.453125 31.308594 C 14.839844 31.308594 15.355469 31.085938 15.613281 30.816406 C 16.050781 30.351562 16.050781 30.132812 15.613281 25.371094 C 15.097656 19.851562 14.734375 11.191406 15.019531 11.191406 C 15.175781 11.191406 15.378906 12.050781 15.894531 14.550781 C 15.949219 14.847656 16.230469 15.214844 16.542969 15.363281 C 16.980469 15.605469 17.160156 15.535156 17.675781 15.019531 C 18.089844 14.578125 18.554688 14.382812 19.148438 14.382812 C 20.230469 14.382812 19.792969 13.964844 18.605469 13.84375 C 17.753906 13.769531 17.703125 13.71875 17.394531 12.269531 C 17.003906 10.480469 16.566406 9.574219 15.613281 8.738281 C 14.96875 8.175781 14.710938 8.125 11.769531 8.050781 C 8.621094 7.953125 8.59375 7.953125 8.4375 8.542969 Z M 8.4375 8.542969 "/>
<path style=" stroke:none;fill-rule:nonzero;fill:rgb(0%,0%,0%);fill-opacity:1;" d="M 30.246094 8.789062 C 29.472656 9.523438 30.246094 10.703125 31.199219 10.207031 C 31.871094 9.867188 31.894531 9.082031 31.253906 8.738281 C 30.632812 8.417969 30.632812 8.417969 30.246094 8.789062 Z M 30.246094 8.789062 "/>
<path style=" stroke:none;fill-rule:nonzero;fill:rgb(0%,0%,0%);fill-opacity:1;" d="M 20.464844 9.574219 C 20.027344 9.769531 19.457031 10.28125 19.222656 10.703125 C 17.960938 13.03125 21.265625 15.289062 23.253906 13.421875 C 24.257812 12.445312 24.285156 11.242188 23.304688 10.234375 C 22.425781 9.328125 21.546875 9.132812 20.464844 9.574219 Z M 21.988281 12.957031 C 21.523438 13.398438 21.316406 13.449219 20.746094 13.277344 C 19.871094 12.957031 19.636719 12.445312 20.4375 12.589844 C 20.777344 12.640625 21.316406 12.589844 21.675781 12.464844 C 22.554688 12.148438 22.65625 12.320312 21.988281 12.957031 Z M 21.988281 12.957031 "/>
<path style=" stroke:none;fill-rule:nonzero;fill:rgb(0%,0%,0%);fill-opacity:1;" d="M 5.730469 10.601562 C 5.238281 11.753906 4.878906 13.71875 5.003906 14.28125 C 5.238281 15.09375 5.730469 15.140625 7.769531 14.550781 C 9.886719 13.9375 10.425781 13.449219 9.703125 12.714844 C 9.289062 12.269531 9.160156 12.25 7.972656 12.539062 C 7.277344 12.714844 6.710938 12.761719 6.710938 12.640625 C 6.710938 12.519531 6.839844 12.417969 6.96875 12.417969 C 7.378906 12.417969 7.253906 11.875 6.632812 10.851562 L 6.011719 9.917969 Z M 5.730469 10.601562 "/>
<path style=" stroke:none;fill-rule:nonzero;fill:rgb(0%,0%,0%);fill-opacity:1;" d="M 26.632812 12.589844 L 23.613281 14.601562 L 21.417969 14.625 C 20.207031 14.625 18.941406 14.773438 18.605469 14.945312 C 17.597656 15.410156 17.03125 16.613281 16.722656 18.945312 C 16.566406 20.144531 16.335938 21.199219 16.179688 21.273438 C 16.050781 21.371094 16.050781 21.496094 16.230469 21.59375 C 16.386719 21.691406 16.515625 22.035156 16.515625 22.328125 C 16.515625 23.117188 17.160156 23.628906 17.652344 23.210938 C 17.960938 22.992188 18.195312 23.039062 18.839844 23.507812 C 19.894531 24.242188 20.777344 25.667969 21.265625 27.503906 C 21.730469 29.246094 22.296875 30.03125 23.636719 30.742188 C 25.597656 31.824219 28.179688 31.234375 28.929688 29.542969 C 30.144531 26.746094 27.328125 23.628906 23.972656 24.070312 C 22.296875 24.292969 20.128906 23.824219 18.890625 22.964844 L 17.855469 22.257812 L 17.988281 20.21875 C 18.21875 17.128906 18.554688 16.808594 18.554688 19.679688 C 18.582031 21.8125 18.65625 22.207031 19.070312 22.574219 C 19.820312 23.238281 21.394531 23.679688 22.914062 23.703125 L 24.257812 23.703125 L 24.257812 19.703125 L 24.285156 15.730469 L 27.636719 13.523438 C 29.496094 12.296875 31.121094 11.191406 31.253906 11.046875 C 31.433594 10.851562 31.222656 10.726562 30.582031 10.652344 C 29.78125 10.578125 29.316406 10.800781 26.632812 12.589844 Z M 22.402344 24.585938 C 22.527344 24.683594 21.597656 25.886719 21.394531 25.910156 C 21.265625 25.910156 21.109375 25.667969 20.4375 24.390625 C 20.363281 24.242188 22.195312 24.414062 22.402344 24.585938 Z M 26.710938 25.003906 C 27.433594 25.371094 27.921875 25.910156 28.363281 26.722656 C 28.902344 27.777344 28.929688 28.019531 28.671875 28.855469 C 28.257812 30.152344 27.328125 30.816406 25.886719 30.816406 C 23.175781 30.816406 21.160156 28.488281 21.933594 26.253906 C 22.527344 24.535156 24.746094 23.949219 26.710938 25.003906 Z M 26.710938 25.003906 "/>
<path style=" stroke:none;fill-rule:nonzero;fill:rgb(0%,0%,0%);fill-opacity:1;" d="M 22.914062 25.667969 C 22.21875 26.328125 22.144531 26.550781 22.269531 27.410156 C 22.425781 28.511719 22.996094 29.445312 23.742188 29.835938 C 24.230469 30.082031 24.257812 30.03125 24.257812 27.503906 C 24.257812 25.835938 24.15625 24.929688 23.972656 24.929688 C 23.820312 24.929688 23.355469 25.273438 22.914062 25.667969 Z M 22.914062 25.667969 "/>
<path style=" stroke:none;fill-rule:nonzero;fill:rgb(0%,0%,0%);fill-opacity:1;" d="M 18.582031 27.210938 C 18.582031 30.253906 18.632812 30.621094 19.097656 31.066406 C 19.714844 31.652344 19.84375 31.652344 20.59375 31.160156 C 21.03125 30.890625 21.160156 30.546875 21.160156 29.761719 C 21.160156 27.800781 20.207031 25.273438 19.121094 24.339844 L 18.582031 23.875 Z M 18.582031 27.210938 "/>
<path style=" stroke:none;fill-rule:nonzero;fill:rgb(0%,0%,0%);fill-opacity:1;" d="M 21.675781 30.328125 C 21.675781 30.695312 22.65625 31.550781 23.097656 31.550781 C 23.636719 31.550781 23.585938 31.355469 22.785156 30.695312 C 22.011719 30.058594 21.675781 29.9375 21.675781 30.328125 Z M 21.675781 30.328125 "/>
</g>
</svg>
